<svg width="20" height="20" viewBox="0 0 20 20" fill="none" class="bars_and_restaraunts" xmlns="http://www.w3.org/2000/svg">
  <path fill-rule="evenodd" clip-rule="evenodd" d="M5.05495 3.29046C5.14835 2.66379 5.6863 2.19971 6.3204 2.19971H13.6796C14.3137 2.19971 14.8517 2.66379 14.945 3.29046L15.4874 6.94124C16.0204 10.1319 13.736 13.0555 10.5995 13.3895L10.5999 16.5998H11.7525C12.0838 16.5998 12.3525 16.8684 12.3525 17.1998C12.3525 17.5311 12.0838 17.7998 11.7525 17.7998H10.0183C10.0122 17.7999 10.0062 17.8 10.0001 17.8H9.99079L9.98167 17.7998H8.24765C7.91628 17.7998 7.64765 17.5311 7.64765 17.1998C7.64765 16.8684 7.91628 16.5998 8.24765 16.5998H9.39991L9.39951 13.3895C6.26307 13.0554 3.97962 10.1318 4.51253 6.94124L5.05495 3.29046ZM6.24184 3.46736L5.69868 7.12308L5.6969 7.13436C5.68569 7.20104 5.67605 7.26756 5.66795 7.33392L5.91812 7.18089C7.30761 6.33268 9.04207 6.27539 10.4841 7.03085C11.5785 7.60431 12.8961 7.54564 13.9344 6.87708L14.236 6.68331L13.7582 3.46736C13.7523 3.42843 13.7191 3.39971 13.6796 3.39971H6.3204C6.28091 3.39971 6.24766 3.42844 6.24184 3.46736Z" fill="#FEFDF9"/>
</svg>