<svg class="debts_and_loans" width="20" height="20" viewBox="0 0 20 20" fill="none" xmlns="http://www.w3.org/2000/svg">
  <path fill-rule="evenodd" clip-rule="evenodd" d="M10 17.6013C9.60401 17.6013 9.20801 17.5245 8.83121 17.3701L7.21598 16.7109C6.97038 16.6101 6.69198 16.6197 6.45358 16.7325L5.87998 17.0069C5.47358 17.2029 5.00238 17.1757 4.61998 16.9341C4.23758 16.6933 4.00958 16.2797 4.00958 15.8269V4.17333C4.00958 3.72213 4.23758 3.30773 4.61998 3.06613C5.00238 2.82453 5.47438 2.79973 5.88078 2.99333L6.44958 3.26613C6.68878 3.38213 6.96718 3.38933 7.21358 3.28933L8.83041 2.62933C9.58401 2.32213 10.4136 2.32213 11.168 2.62933L12.7824 3.28933C13.0288 3.38933 13.3064 3.38213 13.5472 3.26613L14.1192 2.99173C14.5264 2.79813 14.9976 2.82453 15.3792 3.06533C15.7616 3.30613 15.9904 3.72053 15.9904 4.17173V15.8261C15.9904 16.2789 15.7616 16.6925 15.3792 16.9333C14.9952 17.1741 14.5264 17.1989 14.1184 17.0061L13.5504 16.7333C13.3096 16.6189 13.032 16.6101 12.7848 16.7109L11.1688 17.3701C10.792 17.5245 10.396 17.6013 10 17.6013ZM7.42438 7.85927H9.44281C9.77401 7.85927 10.0428 7.59047 10.0428 7.25927C10.0428 6.92807 9.77401 6.65927 9.44281 6.65927H7.42438C7.09318 6.65927 6.82438 6.92807 6.82438 7.25927C6.82438 7.59047 7.09318 7.85927 7.42438 7.85927ZM7.42438 10.4433H12.5724C12.9036 10.4433 13.1724 10.1753 13.1724 9.84329C13.1724 9.51209 12.9036 9.24329 12.5724 9.24329H7.42438C7.09318 9.24329 6.82438 9.51209 6.82438 9.84329C6.82438 10.1753 7.09318 10.4433 7.42438 10.4433ZM7.42438 13.3409H11.0076C11.3388 13.3409 11.6076 13.0721 11.6076 12.7409C11.6076 12.4089 11.3388 12.1409 11.0076 12.1409H7.42438C7.09318 12.1409 6.82438 12.4089 6.82438 12.7409C6.82438 13.0721 7.09318 13.3409 7.42438 13.3409Z" fill="#FEFDF9"/>
</svg>