<svg class="education" width="20" height="20" viewBox="0 0 20 20" fill="none" xmlns="http://www.w3.org/2000/svg">
  <path d="M9.82507 12.6234C9.37318 12.6246 8.93312 12.5148 8.52638 12.3216L5.33534 10.7618C5.31154 10.751 5.28926 10.7379 5.26853 10.7241L3.51134 9.86319C2.79326 9.51529 2.34552 8.80105 2.34552 7.99929C2.34475 7.19749 2.79173 6.48172 3.51288 6.13228L8.53023 3.67621C9.35352 3.27225 10.2989 3.27148 11.1238 3.67698L16.148 6.13305C16.8305 6.46955 17.2671 7.13138 17.3103 7.88075C17.3179 7.91882 17.3218 7.95823 17.3215 7.99858L17.2962 12.1534C17.2939 12.4699 17.0366 12.7256 16.7202 12.7256H16.7163C16.3984 12.7233 16.1419 12.4637 16.1442 12.1458L16.1565 10.1165C16.1572 10.002 16.037 9.92694 15.9344 9.97785C14.3369 10.7705 12.7273 11.5399 11.1245 12.3216C10.7121 12.5228 10.269 12.6234 9.82507 12.6234Z" fill="#FEFDF9"/>
  <path d="M9.82554 13.584C10.4131 13.584 10.999 13.4511 11.5451 13.1839L14.1059 11.9353C14.208 11.8855 14.3269 11.9598 14.3269 12.0733V14.0769C14.3269 14.894 13.8461 15.6236 13.1019 15.9362C12.0106 16.3962 10.9031 16.6266 9.79029 16.6266C8.67822 16.6266 7.55845 16.3962 6.44024 15.9377C5.68914 15.6244 5.20453 14.8887 5.20453 14.0615V12.0122C5.20453 11.8986 5.3235 11.8243 5.42554 11.8742L8.10522 13.1831C8.63921 13.45 9.22688 13.584 9.82554 13.584Z" fill="#FEFDF9"/>
</svg>