<svg class="gifts_and_donations" width="24" height="24" viewBox="0 0 24 24" fill="none" xmlns="http://www.w3.org/2000/svg">
  <path fill-rule="evenodd" clip-rule="evenodd" d="M13.5423 10.5801C13.6067 10.6099 13.6767 10.6252 13.7459 10.6252C13.815 10.6252 13.8831 10.6099 13.9484 10.5801C14.0732 10.5215 17.0185 9.13246 17.7644 6.85726V6.85534C18.0121 6.08542 17.9919 5.27422 17.7059 4.56862C17.3939 3.80062 16.7919 3.23902 16.0124 2.98846C15.5919 2.85214 15.1331 2.81662 14.6751 2.88478C14.3267 2.9491 14.0166 3.11998 13.742 3.31198C13.4703 3.12574 13.1593 2.9491 12.8147 2.89534C12.3759 2.81854 11.9151 2.8483 11.4803 2.98846C9.77818 3.53374 9.25015 5.38366 9.72154 6.8515C10.4262 9.10174 13.4156 10.5206 13.5423 10.5801Z" fill="#FEFDF9"/>
  <path fill-rule="evenodd" clip-rule="evenodd" d="M19.4917 16.2035L19.317 16.3792C18.1256 17.583 17.0974 18.6218 15.5749 19.2083C13.3582 20.0704 11.2827 19.6586 8.8549 19.1728C8.02546 19.0125 7.26322 18.9779 6.41842 18.9702V15.5094L6.78514 15.2598C7.9957 14.4304 9.0421 13.7142 10.4418 13.6768C11.4402 13.6403 12.4146 13.8352 13.557 14.1165C14.0187 14.2326 14.3048 14.5802 14.3048 15.0218C14.3048 15.544 13.891 15.9222 13.3218 15.9242C13.3093 15.9232 13.2968 15.9232 13.2843 15.9232C13.0002 15.9136 12.7064 15.9126 12.4078 15.9242H11.997C11.6638 15.9242 11.396 16.1555 11.3134 16.4627C11.3058 16.4896 11.3029 16.5165 11.2971 16.5434C11.2923 16.5779 11.277 16.6086 11.277 16.6442C11.277 16.6643 11.2875 16.6816 11.2885 16.7018C11.2894 16.7267 11.2808 16.7507 11.2846 16.7766C11.2914 16.8208 11.3144 16.8554 11.3278 16.8966C11.3336 16.911 11.3374 16.9245 11.3432 16.9389C11.467 17.2365 11.7742 17.4285 12.1006 17.3853C12.2062 17.3709 12.3186 17.3699 12.429 17.3642H13.3189C13.3218 17.3642 13.3237 17.3632 13.3256 17.3632C13.5646 17.3718 13.8037 17.3786 14.0379 17.3738C15.5432 17.3363 16.7154 16.3725 17.7502 15.5219C17.9826 15.3309 18.211 15.1437 18.4357 14.9718C18.7525 14.7338 19.2085 14.7654 19.4898 15.0467C19.8075 15.3693 19.8094 15.8867 19.4917 16.2035ZM20.5112 14.031C19.7202 13.2438 18.4558 13.1526 17.5678 13.8237C17.3259 14.007 17.0821 14.2067 16.8354 14.4102C16.4706 14.7107 16.099 15.0131 15.7189 15.2704C15.7285 15.1869 15.7448 15.1072 15.7448 15.0218C15.7448 13.9226 15.0075 12.9971 13.9064 12.7187C12.8168 12.4499 11.636 12.2013 10.4043 12.2368C8.67442 12.2838 7.39378 13.1018 6.17266 13.935C5.88466 13.432 5.36434 13.121 4.71154 13.121H3.26674C3.00082 13.121 2.78674 13.336 2.78674 13.601V20.609C2.78674 20.8739 3.00082 21.089 3.26674 21.089H4.71154C5.30482 21.089 5.78866 20.8307 6.08818 20.4083C6.99346 20.4102 7.76914 20.4294 8.59666 20.5888C10.0242 20.8739 11.4066 21.1494 12.812 21.1494C13.8824 21.1494 14.9672 20.9891 16.0942 20.5514C17.9038 19.8544 19.0875 18.6582 20.3413 17.392L20.5112 17.2211C21.3867 16.3494 21.3886 14.921 20.5112 14.031Z" fill="#FEFDF9"/>
</svg>