<svg class="home" width="20" height="20" viewBox="0 0 20 20" fill="none" xmlns="http://www.w3.org/2000/svg">
  <path fill-rule="evenodd" clip-rule="evenodd" d="M12.878 14.4542C12.878 14.7854 12.6092 15.0542 12.278 15.0542C11.9468 15.0542 11.678 14.7854 11.678 14.4542V11.4782C11.678 11.339 11.5668 11.2302 11.4244 11.2302H8.57559C8.43239 11.2302 8.32121 11.339 8.32121 11.4782V14.4542C8.32121 14.7854 8.05241 15.0542 7.72121 15.0542C7.39001 15.0542 7.12121 14.7854 7.12121 14.4542V11.4782C7.12121 10.6798 7.77401 10.0302 8.57559 10.0302H11.4244C12.226 10.0302 12.878 10.6798 12.878 11.4782V14.4542ZM16.3356 6.50064L11.8772 2.86864C10.7892 1.98064 9.20999 1.98064 8.12361 2.86864L3.66601 6.49984C2.96921 7.06384 2.57001 7.90224 2.57001 8.79744V14.5414C2.57001 16.3374 4.03081 17.7974 5.82761 17.7974H14.1724C15.9684 17.7974 17.43 16.3374 17.43 14.5414V8.79744C17.43 7.90144 17.0308 7.06384 16.3356 6.50064Z" fill="#FEFDF9"/>
</svg>