<svg class="subscriptions_and_services" width="20" height="20" viewBox="0 0 20 20" fill="none" xmlns="http://www.w3.org/2000/svg">
  <path fill-rule="evenodd" clip-rule="evenodd" d="M14.0288 2.8999H5.97201C3.83601 2.8999 2.40161 4.4015 2.40161 6.6359V6.6999C2.40161 6.83245 2.50907 6.9399 2.64161 6.9399H17.36C17.4926 6.9399 17.6 6.83245 17.6 6.6999V6.6359C17.6 4.4015 16.1648 2.8999 14.0288 2.8999Z" fill="#FEFDF9"/>
  <path fill-rule="evenodd" clip-rule="evenodd" d="M2.3996 11.8986C2.3996 14.1306 3.8396 15.6346 5.9756 15.6346H9.33615C9.49831 15.6346 9.61391 15.4769 9.57639 15.3191C9.49055 14.9586 9.44759 14.5838 9.44759 14.1946C9.44759 11.4186 11.6956 9.17864 14.4636 9.17864C15.4674 9.17864 16.4078 9.47192 17.1925 9.9852C17.3616 10.0958 17.5996 9.98032 17.5996 9.77824V8.37867C17.5996 8.24612 17.4921 8.13867 17.3596 8.13867H2.6396C2.50705 8.13867 2.3996 8.24612 2.3996 8.37867V11.8986Z" fill="#FEFDF9"/>
  <path fill-rule="evenodd" clip-rule="evenodd" d="M14.3058 10.8022C13.5418 10.8022 12.8026 11.079 12.2234 11.5814C11.9738 11.7982 11.9474 12.1774 12.1642 12.4278C12.3826 12.6774 12.761 12.7038 13.0114 12.487C13.3714 12.175 13.8306 12.0022 14.3058 12.0022C15.3818 12.0022 16.2562 12.8782 16.2562 13.9542C16.2562 14.2854 16.525 14.5542 16.8562 14.5542C17.1882 14.5542 17.4562 14.2854 17.4562 13.9542C17.4562 12.2166 16.0434 10.8022 14.3058 10.8022Z" fill="#FEFDF9"/>
  <path fill-rule="evenodd" clip-rule="evenodd" d="M15.5988 15.4137C15.2412 15.7265 14.782 15.8977 14.306 15.8977C13.23 15.8977 12.354 15.0265 12.354 13.9545C12.354 13.6233 12.0852 13.3545 11.754 13.3545C11.4228 13.3545 11.154 13.6233 11.154 13.9545C11.154 15.6881 12.5684 17.0977 14.306 17.0977C15.0716 17.0977 15.8108 16.8217 16.3876 16.3185C16.6372 16.1001 16.6636 15.7217 16.446 15.4713C16.2276 15.2217 15.8492 15.1961 15.5988 15.4137Z" fill="#FEFDF9"/>
</svg>