<svg class="work" width="24" height="24" viewBox="0 0 24 24" fill="none" xmlns="http://www.w3.org/2000/svg">
  <path d="M7.61496 13.8481C7.61496 13.6891 7.48602 13.5601 7.32696 13.5601H2.95987C2.80082 13.5601 2.67188 13.6891 2.67188 13.8481V16.5169C2.67188 19.0954 4.32884 20.8273 6.79507 20.8273H16.7877C19.2549 20.8273 20.9119 19.0954 20.9119 16.5169V13.8481C20.9119 13.6891 20.7829 13.5601 20.6239 13.5601H16.2502C16.0911 13.5601 15.9622 13.6891 15.9622 13.8481V14.8182C15.9622 15.2157 15.6397 15.5382 15.2422 15.5382C14.8448 15.5382 14.5222 15.2157 14.5222 14.8182V13.8481C14.5222 13.6891 14.3932 13.5601 14.2342 13.5601H9.34296C9.18391 13.5601 9.05496 13.6891 9.05496 13.8481V14.8182C9.05496 15.2157 8.7324 15.5382 8.33496 15.5382C7.93752 15.5382 7.61496 15.2157 7.61496 14.8182V13.8481Z" fill="#FFFFFF"/>
  <path fill-rule="evenodd" clip-rule="evenodd" d="M15.7375 6.02452C15.7375 6.09847 15.7974 6.15841 15.8714 6.15841H16.7887C19.2549 6.15841 20.9119 7.88642 20.9119 10.4583V11.8321C20.9119 11.9911 20.7829 12.1201 20.6239 12.1201H15.2683C15.2597 12.1198 15.2509 12.1197 15.2422 12.1197C15.2334 12.1197 15.2246 12.1198 15.216 12.1201H8.36117C8.35247 12.1198 8.34374 12.1197 8.33496 12.1197C8.32619 12.1197 8.31745 12.1198 8.30875 12.1201H2.95987C2.80082 12.1201 2.67188 11.9911 2.67188 11.8321V10.4583C2.67188 7.88642 4.32884 6.15841 6.79507 6.15841H7.71333C7.78728 6.15841 7.84722 6.09847 7.84722 6.02452C7.84722 4.45204 9.12595 3.17236 10.6975 3.17236H12.8872C14.4588 3.17236 15.7375 4.45204 15.7375 6.02452ZM14.1636 6.15841C14.2375 6.15841 14.2975 6.09847 14.2975 6.02452C14.2975 5.24596 13.6648 4.61236 12.8872 4.61236H10.6975C9.91987 4.61236 9.28722 5.24596 9.28722 6.02452C9.28722 6.09847 9.34718 6.15841 9.42113 6.15841H14.1636Z" fill="#FFFFFF"/>
</svg>