<svg class="loans" width="24" height="24" viewBox="0 0 24 24" fill="none" xmlns="http://www.w3.org/2000/svg">
  <path fill-rule="evenodd" clip-rule="evenodd" d="M12.9579 15.7732V12.753C13.7845 12.7617 14.4536 13.4327 14.4536 14.2583C14.4536 15.0887 13.7845 15.7645 12.9579 15.7732ZM9.5461 9.2183C9.5461 8.37446 10.2056 7.68902 11.0379 7.62662V10.8196C10.2065 10.7572 9.5461 10.0669 9.5461 9.2183ZM16.3736 14.2583C16.3736 12.3738 14.8424 10.8417 12.9579 10.833V7.6151H13.2843C13.9285 7.6151 14.4526 8.13638 14.4526 8.7767V8.90054C14.4526 9.43142 14.8827 9.86054 15.4126 9.86054C15.9425 9.86054 16.3726 9.43142 16.3726 8.90054V8.7767C16.3726 7.0775 14.9873 5.6951 13.2843 5.6951H12.9579V4.8599C12.9579 4.32902 12.5278 3.8999 11.9979 3.8999C11.468 3.8999 11.0379 4.32902 11.0379 4.8599V5.70662C9.14674 5.77094 7.6261 7.31558 7.6261 9.21926C7.62706 11.1258 9.14866 12.6753 11.0379 12.7396V15.7751H10.7153C10.0712 15.7751 9.54802 15.25 9.54802 14.6039C9.54802 14.073 9.11794 13.6439 8.58802 13.6439C8.0581 13.6439 7.62802 14.073 7.62802 14.6039C7.62802 16.3079 9.0133 17.6951 10.7153 17.6951H11.0379V18.2999C11.0379 18.8298 11.468 19.2599 11.9979 19.2599C12.5278 19.2599 12.9579 18.8298 12.9579 18.2999V17.6932C14.8424 17.6845 16.3736 16.1476 16.3736 14.2583Z" fill="#ffffff"/>
</svg>