<svg class="shopping" width="20" height="20" viewBox="0 0 20 20" fill="none" xmlns="http://www.w3.org/2000/svg">
  <path fill-rule="evenodd" clip-rule="evenodd" d="M9.99946 13.3936C8.20504 13.3936 6.74584 11.9336 6.74584 10.14C6.74584 9.8088 7.01464 9.54 7.34584 9.54C7.67704 9.54 7.94584 9.8088 7.94584 10.14C7.94584 11.272 8.86666 12.1936 9.99946 12.1936C11.1323 12.1936 12.0531 11.272 12.0531 10.14C12.0531 9.8088 12.3219 9.54 12.6531 9.54C12.9843 9.54 13.2531 9.8088 13.2531 10.14C13.2531 11.9336 11.7939 13.3936 9.99946 13.3936ZM7.50824 5.99278C7.50824 4.61838 8.62586 3.50078 10.0003 3.50078C11.3747 3.50078 12.4923 4.61838 12.4923 5.99278V6.42718H7.50824V5.99278ZM17.2891 8.868C17.1739 7.49918 16.0067 6.42718 14.6323 6.42718H13.6923V5.99278C13.6923 3.95678 12.0363 2.30078 10.0003 2.30078C7.96424 2.30078 6.30824 3.95678 6.30824 5.99278V6.42718H5.36264C3.98744 6.42718 2.82024 7.49998 2.70584 8.8696L2.28344 13.892C2.20104 14.8688 2.53464 15.8424 3.19784 16.5632C3.86104 17.2856 4.80344 17.6992 5.78424 17.6992H14.2155C15.1963 17.6992 16.1403 17.2848 16.8043 16.5616C17.4675 15.84 17.8003 14.8656 17.7163 13.888L17.2891 8.868Z" fill="#FEFDF9"/>
</svg>